<svg width="224" height="224" viewBox="0 0 224 224" fill="none" xmlns="http://www.w3.org/2000/svg">
<rect width="224" height="224" rx="48" ry="48" fill="#C8FF3D"/>
<path fill-rule="evenodd" clip-rule="evenodd" d="M95.9966 188.1948C77.5965 184.8229 61.0209 174.9506 49.2922 160.3778C37.5634 145.8049 31.4624 127.5021 32.1018 108.8065C32.7412 90.111 40.0785 72.2679 52.7753 58.5304C65.4724 44.7927 82.6836 36.0761 101.2712 33.9692C119.8589 31.8621 138.5845 36.5057 154.0342 47.0529C169.4841 57.6001 180.6291 73.3483 185.4367 91.4267C190.2442 109.505 188.3943 128.7089 180.2245 145.5373C169.3788 167.8777 148.5434 183.7184 124.1164 188.1948L120.6664 175.2074C150.6442 170.5396 172.1491 143.8303 170.3119 113.5468C168.4748 83.2635 143.8988 59.3496 113.5766 58.34C83.2543 57.3304 57.1421 79.5565 53.2945 109.6506C49.4471 139.7447 69.1276 167.8254 98.7285 174.4769Z" fill="#1A1A1A"/>
<path d="M108.1107 188.8556L103.313 174.8917L111.7639 171.0083L89.4886 152.6687L65.5721 172.2705C76.1851 183.4368 95.0053 190.5443 108.1107 188.8556Z" fill="#1A1A1A"/>
<path d="M112.4025 100.9958C104.8275 99.4453 97.4304 104.3294 95.88 111.9043C94.3295 119.4793 99.213 126.8762 106.7879 128.4273C114.3629 129.9775 121.7608 125.0938 123.3109 117.5188C124.8621 109.944 119.9774 102.546 112.4025 100.9958Z" fill="#1A1A1A"/>
</svg>
